<?xml version="1.0" standalone="no"?>
<!DOCTYPE svg PUBLIC "-//W3C//DTD SVG 20010904//EN"
 "http://www.w3.org/TR/2001/REC-SVG-20010904/DTD/svg10.dtd">
<svg version="1.0" xmlns="http://www.w3.org/2000/svg"
 width="512.000000pt" height="512.000000pt" viewBox="0 0 512.000000 512.000000"
 preserveAspectRatio="xMidYMid meet">
<metadata>
Created by potrace 1.14, written by Peter Selinger 2001-2017
</metadata>
<g transform="translate(0.000000,512.000000) scale(0.100000,-0.100000)"
fill="#000000" stroke="none">
<path d="M2135 5113 c-38 -4 -192 -26 -264 -39 -71 -12 -281 -74 -371 -109
-484 -189 -874 -513 -1149 -954 -68 -108 -142 -253 -181 -351 -25 -62 -88
-251 -94 -284 -3 -11 -14 -62 -25 -112 -37 -163 -49 -305 -46 -519 2 -110 6
-216 10 -235 3 -19 13 -75 21 -125 43 -265 147 -546 286 -783 202 -342 469
-610 828 -830 l35 -22 -143 0 c-138 0 -144 -1 -167 -25 l-25 -24 0 -276 0
-275 -225 0 -225 0 0 225 0 225 125 0 c120 0 127 1 150 25 32 31 32 69 0 100
-24 25 -27 25 -200 25 -173 0 -176 0 -200 -25 l-25 -24 0 -326 0 -326 25 -25
24 -24 2033 0 c1381 1 2049 4 2083 11 84 18 205 82 265 141 81 78 102 113 189
313 5 11 19 42 31 69 12 27 30 72 41 100 11 28 24 60 29 71 17 34 112 260 114
270 2 6 6 17 9 25 26 72 32 214 10 300 -32 133 -79 201 -285 412 -125 130
-147 140 -193 93 -48 -47 -36 -71 102 -215 l73 -75 -158 -152 c-86 -84 -161
-153 -165 -153 -8 0 -220 216 -225 230 -2 5 19 42 46 83 153 231 268 515 327
811 32 164 38 230 39 441 1 227 -8 321 -51 515 -43 198 -127 427 -219 597 -60
112 -197 312 -275 403 -141 164 -290 300 -329 300 -36 0 -67 -24 -73 -57 -5
-28 14 -78 32 -85 5 -1 44 -36 86 -76 364 -351 591 -786 661 -1271 4 -25 9
-55 11 -66 9 -39 10 -401 2 -465 -5 -36 -12 -83 -15 -105 -32 -235 -119 -491
-243 -720 -106 -196 -214 -339 -380 -506 -188 -187 -358 -309 -596 -425 l-120
-59 -820 0 -821 0 -144 72 c-541 267 -929 716 -1119 1294 -12 36 -23 74 -26
85 -35 162 -55 268 -62 327 -14 137 -7 546 11 576 2 3 7 29 10 56 27 204 149
530 277 742 179 297 462 578 759 755 244 145 539 250 797 283 26 4 75 10 108
15 62 8 414 5 475 -4 19 -3 50 -8 68 -11 258 -40 523 -134 760 -269 54 -31
110 -56 123 -56 31 0 69 38 69 69 0 40 -19 60 -103 109 -242 141 -520 243
-782 286 -49 8 -106 18 -125 21 -41 7 -417 13 -475 8z m2814 -3820 c37 -111
15 -263 -52 -357 -34 -49 -79 -96 -91 -96 -6 0 -22 18 -35 39 -13 21 -61 79
-107 127 l-84 89 158 152 c156 151 157 152 174 130 9 -12 26 -50 37 -84z
m-469 -312 c146 -153 188 -206 175 -219 -3 -4 -268 -8 -588 -10 l-582 -3 120
79 c195 127 350 263 495 430 l54 64 91 -95 c49 -52 155 -163 235 -246z m249
-463 c-59 -137 -92 -200 -115 -218 -13 -11 -14 6 -12 145 l3 159 35 4 c19 2
57 11 85 21 27 9 51 16 53 15 2 -1 -20 -58 -49 -126z m-3279 -143 l0 -225
-225 0 -225 0 0 225 0 225 225 0 225 0 0 -225z m600 0 l0 -225 -225 0 -225 0
0 225 0 225 225 0 225 0 0 -225z m600 0 l0 -225 -225 0 -225 0 0 225 0 225
225 0 225 0 0 -225z m600 0 l0 -225 -225 0 -225 0 0 225 0 225 225 0 225 0 0
-225z m600 0 l0 -225 -225 0 -225 0 0 225 0 225 225 0 225 0 0 -225z m600 15
l0 -210 -27 -12 c-17 -7 -106 -13 -225 -16 l-198 -4 0 226 0 226 225 0 225 0
0 -210z"/>
<path d="M2129 4805 c-410 -59 -678 -256 -673 -495 1 -43 20 -103 55 -176 88
-186 284 -395 484 -517 58 -36 169 -85 210 -93 133 -28 221 -20 350 32 223 90
494 350 608 583 73 152 61 282 -35 398 -52 61 -122 114 -208 158 -62 31 -201
79 -258 90 -15 2 -52 10 -82 16 -80 16 -351 19 -451 4z m421 -150 c177 -32
339 -99 421 -173 46 -41 86 -98 76 -108 -2 -3 -25 4 -50 15 -103 44 -304 98
-432 116 -96 13 -359 13 -455 0 -179 -26 -401 -89 -493 -142 -24 -14 37 78 75
113 138 127 377 195 668 189 85 -2 171 -6 190 -10z m84 -315 c114 -22 244 -62
340 -105 l58 -25 -33 -58 c-91 -163 -288 -350 -458 -437 -172 -86 -299 -75
-486 43 -101 64 -187 141 -293 261 -29 33 -107 150 -115 174 -5 14 5 23 51 43
128 56 303 105 437 119 33 4 62 9 64 11 14 13 336 -6 435 -26z"/>
<path d="M930 4088 c-227 -86 -443 -371 -544 -721 -22 -76 -31 -118 -51 -237
-9 -50 -9 -247 -1 -300 21 -135 74 -255 144 -325 41 -42 57 -52 135 -84 73
-29 285 2 434 65 47 20 64 32 74 56 10 26 10 35 -2 57 -28 49 -53 53 -142 20
-76 -28 -147 -48 -193 -53 -17 -2 -21 4 -24 38 -7 70 -5 308 3 381 20 178 96
405 192 575 73 130 217 320 242 320 20 0 106 -110 166 -211 72 -123 137 -292
153 -399 8 -55 5 -160 -6 -201 -22 -82 -83 -160 -218 -280 -56 -49 -65 -77
-37 -116 25 -36 70 -39 117 -8 63 42 171 154 216 224 65 99 82 163 83 296 0
313 -259 786 -490 894 -74 34 -173 38 -251 9z m115 -144 c-9 -10 -40 -47 -70
-83 -195 -243 -321 -545 -363 -871 -4 -30 -7 -133 -7 -229 l1 -174 -36 40
c-99 113 -121 370 -55 639 93 373 328 682 528 693 17 1 17 0 2 -15z"/>
<path d="M3545 4101 c-139 -37 -317 -234 -430 -475 -130 -278 -152 -515 -64
-689 76 -149 251 -300 474 -407 242 -116 456 -150 577 -91 105 50 195 187 225
341 24 128 19 309 -13 464 -96 463 -393 844 -671 861 -37 2 -81 1 -98 -4z
m198 -179 c93 -50 213 -188 289 -333 67 -125 129 -308 143 -419 4 -30 9 -59
12 -63 11 -18 4 -237 -10 -303 -17 -81 -53 -158 -89 -191 l-24 -23 2 163 c3
246 -37 466 -123 681 -66 163 -217 411 -297 487 -14 13 -26 28 -26 33 0 14 72
-4 123 -32z m-238 -69 c15 -16 53 -62 85 -103 166 -216 260 -438 315 -740 17
-94 12 -426 -6 -445 -10 -9 -159 34 -245 71 -219 93 -404 240 -471 374 -66
131 -35 347 84 585 60 120 178 285 204 285 5 0 20 -12 34 -27z"/>
<path d="M2275 3004 c-11 -3 -41 -20 -67 -37 -120 -80 -131 -247 -23 -346 87
-80 205 -81 296 -3 148 127 66 377 -127 387 -33 2 -68 1 -79 -1z m110 -169
c14 -13 25 -36 25 -50 0 -33 -42 -75 -75 -75 -33 0 -75 42 -75 75 0 33 42 75
75 75 14 0 37 -11 50 -25z"/>
<path d="M1365 2313 c-260 -26 -496 -109 -603 -212 -123 -118 -133 -294 -27
-506 239 -479 934 -837 1289 -665 133 64 193 194 199 433 3 91 -1 143 -18 257
-11 71 -57 227 -88 300 -119 274 -299 388 -622 394 -55 1 -113 0 -130 -1z
m300 -168 c93 -23 151 -54 202 -107 87 -90 143 -220 189 -438 25 -115 21 -392
-5 -376 -4 3 -23 8 -42 11 -159 27 -389 124 -549 230 -147 98 -283 226 -390
367 -59 78 -130 191 -130 208 0 10 126 63 190 80 176 47 403 58 535 25z m-676
-453 c84 -105 221 -235 336 -318 159 -114 433 -239 603 -275 28 -6 52 -14 52
-19 0 -17 -89 -42 -151 -43 -88 -2 -152 8 -245 39 -294 96 -593 341 -717 589
-38 76 -61 172 -54 220 3 17 6 35 6 40 1 6 24 -26 52 -70 28 -44 81 -117 118
-163z"/>
<path d="M3128 2315 c-2 -1 -30 -5 -63 -8 -237 -22 -400 -140 -503 -367 -117
-257 -151 -624 -78 -828 79 -220 343 -286 676 -169 250 87 490 259 661 475
211 264 245 540 85 686 -134 120 -399 203 -678 211 -53 1 -98 2 -100 0z m227
-160 c132 -15 375 -90 375 -116 0 -5 -19 -39 -41 -76 -224 -365 -583 -625
-1000 -722 l-79 -18 -7 36 c-9 46 -9 187 0 271 19 169 89 369 164 468 70 93
164 143 302 159 25 3 47 6 49 8 5 4 178 -3 237 -10z m501 -312 c-6 -87 -37
-163 -115 -283 -35 -54 -183 -210 -251 -264 -146 -118 -358 -220 -516 -250
-107 -20 -230 -8 -278 27 -18 13 -16 14 21 20 129 21 402 135 553 232 210 134
420 348 543 552 27 45 33 50 39 34 4 -11 5 -42 4 -68z"/>
</g>
</svg>
